<svg xmlns="http://www.w3.org/2000/svg" xmlns:xlink="http://www.w3.org/1999/xlink" width="500" height="500" viewBox="0 0 132.292 132.292"><defs><linearGradient id="a"><stop offset="0" stop-color="#000300"/><stop offset="1" stop-color="#000003" stop-opacity="0"/></linearGradient><linearGradient xlink:href="#a" id="f" x1="26.458" y1="21.167" x2="39.688" y2="18.521" gradientUnits="userSpaceOnUse" gradientTransform="translate(.186 -20.484) scale(1.27846)"/><linearGradient xlink:href="#a" id="d" x1="70.228" y1="25.946" x2="71.679" y2="39.929" gradientUnits="userSpaceOnUse" gradientTransform="translate(.186 -20.484) scale(1.27846)"/><linearGradient xlink:href="#a" id="e" x1="25.946" y1="81.31" x2="41.598" y2="81.02" gradientUnits="userSpaceOnUse" gradientTransform="translate(.186 -20.484) scale(1.27846)"/><linearGradient xlink:href="#a" id="b" x1="26.458" y1="58.208" x2="42.333" y2="58.208" gradientUnits="userSpaceOnUse" gradientTransform="translate(.186 -20.484) scale(1.27846)"/><linearGradient xlink:href="#a" id="c" x1="27.88" y1="75.791" x2="36.8" y2="61.565" gradientUnits="userSpaceOnUse" gradientTransform="translate(.186 -20.484) scale(1.27846)"/></defs><path d="M27.246 64.08l74.417-60.886 6.765 20.296-67.652 57.504z" fill="#aa00d4"/><path d="M27.246 64.08l74.417-60.886 6.765 20.296-67.652 57.504z" fill="url(#b)"/><path d="M27.246 64.08l74.417-60.886 6.765 20.296-67.652 57.504z" fill="url(#c)"/><path d="M33.78 54.665l74.427 61.787L95.161 132 29.426 78.582z" fill="#d40055"/><path d="M27.246 64.08l74.417-60.886 6.765 20.296-67.652 57.504z" fill="url(#d)"/><path d="M44.16 3.194h57.503l6.765 20.296H44.16z" fill="#5500d4"/><path d="M33.78 54.665l74.427 61.787L95.161 132 29.426 78.582z" fill="url(#e)"/><path d="M44.16 3.194h57.503l6.765 20.296H44.16z" fill="url(#f)"/><path d="M23.864 23.49L44.159 3.194V128.35H23.864z" fill="#0000d4"/></svg>